Coordinates
version=1
nRows=16
nColumns=28
inDegrees=yes

Units are S.I. units (second, meters, Newtons, ...)
If the header above contains a line with 'inDegrees', this indicates whether rotational values are in degrees (yes) or radians (no).

endheader
time	pelvis_tilt	pelvis_list	pelvis_rotation	pelvis_tx	pelvis_ty	pelvis_tz	hip_flexion_r	hip_adduction_r	hip_rotation_r	knee_angle_r	knee_angle_r_ie	knee_angle_r_vv	ankle_angle_r	subtalar_angle_r	mtp_angle_r	hip_flexion_l	hip_adduction_l	hip_rotation_l	knee_angle_l	knee_angle_l_ie	knee_angle_l_vv	ankle_angle_l	subtalar_angle_l	mtp_angle_l	lumbar_extension	lumbar_bending	lumbar_rotation
     23.86000000	      6.37192370	     -5.33856964	     -4.41386121	     -0.09400321	      1.19977860	      0.34410212	     10.44829199	     -1.54681105	     -1.90998460	      0.32738582	    -11.45999907	      0.10695818	    -10.62239695	      3.35892820	      0.00000000	    -16.15476688	     -0.49917478	      1.61585390	      3.33692804	     13.47441127	     -4.18833150	     11.99253126	     -7.87078260	      0.00000000	    -11.73448104	      1.17661578	     -7.70738802
     23.86500000	      6.37335201	     -5.33491787	     -4.41054801	     -0.09299496	      1.19962757	      0.34405877	     10.42204420	     -1.56388639	     -1.82173651	      0.27051757	    -11.39285109	      0.10290230	    -10.63123731	      3.40932155	      0.00000000	    -16.19730570	     -0.48094816	      1.64516754	      3.27975694	     13.46258887	     -4.18501920	     12.09224112	     -7.90919421	      0.00000000	    -11.68506662	      1.17763678	     -7.66534406
     23.87000000	      6.36878216	     -5.34520419	     -4.43142498	     -0.09194358	      1.19947000	      0.34407329	     10.39706860	     -1.55421596	     -1.73107038	      0.21674520	    -11.32820900	      0.09163045	    -10.65105357	      3.45820500	      0.00000000	    -16.24568999	     -0.47621163	      1.65650491	      3.23428674	     13.45916696	     -4.18570625	     12.18350011	     -7.94784609	      0.00000000	    -11.62794522	      1.18710286	     -7.60591811
     23.87500000	      6.36965753	     -5.34640780	     -4.43953841	     -0.09091820	      1.19932444	      0.34407907	     10.36517822	     -1.55347389	     -1.65723292	      0.16361327	    -11.27246857	      0.07807127	    -10.68579483	      3.50143302	      0.00000000	    -16.29345328	     -0.46299370	      1.67760963	      3.18748613	     13.45173936	     -4.17943286	     12.26262421	     -7.97681578	      0.00000000	    -11.58122039	      1.18553355	     -7.56682150
     23.88000000	      6.37157470	     -5.34552867	     -4.44853162	     -0.08988063	      1.19917704	      0.34406790	     10.32728398	     -1.55664614	     -1.59939945	      0.11606273	    -11.22456948	      0.07024127	    -10.72628545	      3.53879924	      0.00000000	    -16.34286633	     -0.44580808	      1.70032773	      3.13817507	     13.44726644	     -4.17407582	     12.35126542	     -8.00870762	      0.00000000	    -11.53594742	      1.18520677	     -7.51948781
     23.88500000	      6.36819549	     -5.34919025	     -4.46935555	     -0.08882117	      1.19901987	      0.34408004	     10.28957727	     -1.54822924	     -1.54814076	      0.07599858	    -11.18109611	      0.05898782	    -10.77076961	      3.57071380	      0.00000000	    -16.39271498	     -0.43271883	      1.71898207	      3.09341161	     13.44605393	     -4.17206000	     12.43565882	     -8.03803257	      0.00000000	    -11.48481431	      1.19369442	     -7.47058167
     23.89000000	      6.36522123	     -5.34889763	     -4.47124696	     -0.08778564	      1.19886249	      0.34406555	     10.24863232	     -1.54790363	     -1.51890604	      0.03753064	    -11.15026419	      0.05181754	    -10.82326882	      3.59303257	      0.00000000	    -16.43450876	     -0.41944267	      1.74784904	      3.04026059	     13.44254377	     -4.16753234	     12.53236501	     -8.06772098	      0.00000000	    -11.43786064	      1.19272703	     -7.41953585
     23.89500000	      6.36234956	     -5.35008939	     -4.48905362	     -0.08670690	      1.19870926	      0.34408905	     10.20124316	     -1.53811360	     -1.48701700	      0.00630953	    -11.12099618	      0.04082695	    -10.87243436	      3.60848806	      0.00000000	    -16.48748167	     -0.40495190	      1.76302075	      2.99771005	     13.44957233	     -4.16398767	     12.62017342	     -8.09458662	      0.00000000	    -11.38680537	      1.19031615	     -7.36455669
     23.90000000	      6.36117030	     -5.34803917	     -4.50701350	     -0.08563572	      1.19855541	      0.34411348	     10.15062618	     -1.53001036	     -1.46051042	     -0.02276616	    -11.10030011	      0.02987084	    -10.91939852	      3.61379718	      0.00000000	    -16.54123410	     -0.38711462	      1.78422307	      2.95381411	     13.45451166	     -4.15952449	     12.71146145	     -8.11518087	      0.00000000	    -11.34113722	      1.18588479	     -7.30747234
     23.90500000	      6.35344798	     -5.35517500	     -4.52977172	     -0.08455042	      1.19838714	      0.34416512	     10.10335837	     -1.50597400	     -1.43135067	     -0.05149499	    -11.08677999	      0.01616314	    -10.95862481	      3.60677526	      0.00000000	    -16.59196040	     -0.38127303	      1.79909838	      2.91108733	     13.46489629	     -4.15893207	     12.80837191	     -8.13176153	      0.00000000	    -11.28882628	      1.18895859	     -7.24358624
     23.91000000	      6.35113912	     -5.35108958	     -4.54680865	     -0.08345812	      1.19822660	      0.34419073	     10.04774310	     -1.49916403	     -1.40411517	     -0.07909258	    -11.08199149	      0.01059382	    -10.98678256	      3.58841838	      0.00000000	    -16.64766854	     -0.36086877	      1.81863170	      2.86927248	     13.47541583	     -4.15055599	     12.90079729	     -8.13654218	      0.00000000	    -11.24357600	      1.18224095	     -7.18634404
     23.91500000	      6.34317154	     -5.34882823	     -4.56004353	     -0.08237886	      1.19805404	      0.34422787	      9.99781851	     -1.48616814	     -1.37926165	     -0.10937343	    -11.08722220	      0.00188943	    -10.99998367	      3.55987705	      0.00000000	    -16.69466014	     -0.34668420	      1.84547462	      2.82481575	     13.48494611	     -4.14411308	     13.00020061	     -8.13536499	      0.00000000	    -11.19494348	      1.18042125	     -7.13853589
     23.92000000	      6.33839625	     -5.34548322	     -4.59018690	     -0.08125584	      1.19788682	      0.34428543	      9.94285739	     -1.47102253	     -1.33576852	     -0.14161514	    -11.09247129	     -0.00584862	    -10.99920037	      3.52607466	      0.00000000	    -16.75514748	     -0.32521691	      1.85693026	      2.78931588	     13.50514362	     -4.13444281	     13.09835026	     -8.12684162	      0.00000000	    -11.14714638	      1.17686981	     -7.07751721
     23.92500000	      6.32994193	     -5.33987254	     -4.60524018	     -0.08015354	      1.19771282	      0.34434027	      9.89119256	     -1.45829519	     -1.30017988	     -0.17813131	    -11.11324136	     -0.01184887	    -10.98405804	      3.48154071	      0.00000000	    -16.80421021	     -0.30795985	      1.87846223	      2.74669087	     13.51520569	     -4.12478268	     13.19843182	     -8.10632769	      0.00000000	    -11.09741294	      1.17060639	     -7.02856780
     23.93000000	      6.32584773	     -5.33397142	     -4.63442212	     -0.07901285	      1.19754434	      0.34440498	      9.83270816	     -1.44823424	     -1.17622642	     -0.21573742	    -11.16908292	     -0.00387411	    -10.98424463	      3.33784673	      0.00000000	    -16.86740050	     -0.28076090	      1.85567642	      2.70864295	     13.61031993	     -4.10356714	     13.31954385	     -7.89855726	      0.00000000	    -11.04885982	      1.15985311	     -6.96259643
     23.93500000	      6.30665730	     -5.33202154	     -4.66558804	     -0.07787448	      1.19735229	      0.34449447	      9.79352768	     -1.42196498	     -1.16347241	     -0.25964212	    -11.15881345	     -0.01985386	    -10.95856642	      3.33057951	      0.00000000	    -16.90983750	     -0.26583698	      1.87205470	      2.66649525	     13.62496001	     -4.09652274	     13.43293267	     -7.90485717	      0.00000000	    -10.98896547	      1.16487435	     -6.92369974
